<svg width="90" height="90" viewBox="0 0 90 90" fill="none" xmlns="http://www.w3.org/2000/svg">
<circle cx="45" cy="45" r="45" fill="#BDF1F3"/>
<path d="M21 29V61H48.52C47.9534 59.279 47.6653 57.4785 47.6667 55.6667H31.6667C31.6667 54.2522 31.1048 52.8956 30.1046 51.8954C29.1044 50.8952 27.7478 50.3333 26.3333 50.3333V39.6667C29.2933 39.6667 31.6667 37.2933 31.6667 34.3333H58.3333C58.3333 35.7478 58.8952 37.1044 59.8954 38.1046C60.8956 39.1048 62.2522 39.6667 63.6667 39.6667V39.8267C65.4533 39.8267 67.24 40.1467 69 40.7333V29H21ZM45 37C40.4667 37.08 37 40.4667 37 45C37 49.5333 40.4667 52.84 45 53C46.0133 53 47.0533 52.7867 48.04 52.3867C48.76 49.4533 49.96 46.68 52.92 43.96C52.6 40.4133 49.24 36.92 45 37ZM70.68 45.72L60.36 56.12L56.76 52.4667L53 56.2533L60.3333 63.6667L74.4133 49.48L70.68 45.72Z" fill="#09848A"/>
</svg>
