<svg width="90" height="90" viewBox="0 0 90 90" fill="none" xmlns="http://www.w3.org/2000/svg">
<circle cx="45" cy="45" r="45" fill="#C4E2C1"/>
<path d="M26.3333 53L24.6667 49.3334L21 47.6667L24.6667 46L26.3333 42.3334L28 46L31.6667 47.6667L28 49.3334L26.3333 53ZM34.3333 69L31.8 63.5334L26.3333 61L31.8 58.4667L34.3333 53L36.8667 58.4667L42.3333 61L36.8667 63.5334L34.3333 69ZM34.3333 42.3334L31.8 36.8667L26.3333 34.3334L31.8 31.8L34.3333 26.3334L36.8667 31.8L42.3333 34.3334L36.8667 36.8667L34.3333 42.3334ZM63.6667 71.6667C58.1556 69.5334 53.6667 66.0116 50.2 61.1014C46.7333 56.1894 45 50.8223 45 45C45 40.8223 45.8338 36.9112 47.5013 33.2667C49.1671 29.6223 51.4 26.4223 54.2 23.6667H45V18.3334H63.6667V37H58.3333V27.0667C55.9333 29.4223 54 32.1556 52.5333 35.2667C51.0667 38.3778 50.3333 41.6223 50.3333 45C50.3333 49.4445 51.5778 53.5334 54.0667 57.2667C56.5556 61 59.7556 63.8667 63.6667 65.8667V71.6667Z" fill="#34A853"/>
</svg>
