<svg width="90" height="90" viewBox="0 0 90 90" fill="none" xmlns="http://www.w3.org/2000/svg">
<circle cx="45" cy="45" r="45" fill="#B7CBE2"/>
<path d="M25.9 42.15L34.3 33.75C34.7667 33.2834 35.3167 32.95 35.95 32.75C36.5833 32.55 37.2333 32.5167 37.9 32.65L40.5 33.2C38.7 35.3334 37.2833 37.2667 36.25 39C35.2167 40.7334 34.2167 42.8334 33.25 45.3L25.9 42.15ZM36.15 46.7C36.9167 44.3 37.958 42.0334 39.274 39.9C40.5913 37.7667 42.1833 35.7667 44.05 33.9C46.9833 30.9667 50.3333 28.7747 54.1 27.324C57.8667 25.8747 61.3833 25.4334 64.65 26C65.2167 29.2667 64.7833 32.7834 63.35 36.55C61.9167 40.3167 59.7333 43.6667 56.8 46.6C54.9667 48.4334 52.9667 50.0254 50.8 51.376C48.6333 52.7254 46.35 53.7834 43.95 54.55L36.15 46.7ZM49.95 40.7C50.7167 41.4667 51.6587 41.85 52.776 41.85C53.892 41.85 54.8333 41.4667 55.6 40.7C56.3667 39.9334 56.75 38.9914 56.75 37.874C56.75 36.758 56.3667 35.8167 55.6 35.05C54.8333 34.2834 53.892 33.9 52.776 33.9C51.6587 33.9 50.7167 34.2834 49.95 35.05C49.1833 35.8167 48.8 36.758 48.8 37.874C48.8 38.9914 49.1833 39.9334 49.95 40.7ZM48.55 64.75L45.35 57.4C47.8167 56.4334 49.9253 55.4334 51.676 54.4C53.4253 53.3667 55.3667 51.95 57.5 50.15L58 52.75C58.1333 53.4167 58.1 54.0754 57.9 54.726C57.7 55.3754 57.3667 55.9334 56.9 56.4L48.55 64.75ZM29.1 53.1C30.2667 51.9334 31.6833 51.3414 33.35 51.324C35.0167 51.308 36.4333 51.8834 37.6 53.05C38.7667 54.2167 39.35 55.6334 39.35 57.3C39.35 58.9667 38.7667 60.3834 37.6 61.55C36.7667 62.3834 35.3753 63.1 33.426 63.7C31.4753 64.3 28.7833 64.8334 25.35 65.3C25.8167 61.8667 26.35 59.1834 26.95 57.25C27.55 55.3167 28.2667 53.9334 29.1 53.1Z" fill="#043873"/>
</svg>
