<svg width="90" height="90" viewBox="0 0 90 90" fill="none" xmlns="http://www.w3.org/2000/svg">
<circle cx="45" cy="45" r="45" fill="#D4CFF3"/>
<path d="M34.3333 45H47.7333C48.4889 45 49.1111 44.744 49.6 44.232C50.0889 43.7218 50.3333 43.0889 50.3333 42.3334C50.3333 41.5778 50.0782 40.944 49.568 40.432C49.056 39.9218 48.4222 39.6667 47.6667 39.6667H34.2667C33.5111 39.6667 32.8889 39.9218 32.4 40.432C31.9111 40.944 31.6667 41.5778 31.6667 42.3334C31.6667 43.0889 31.9218 43.7218 32.432 44.232C32.944 44.744 33.5778 45 34.3333 45ZM34.3333 37H47.7333C48.4889 37 49.1111 36.744 49.6 36.232C50.0889 35.7218 50.3333 35.0889 50.3333 34.3334C50.3333 33.5778 50.0782 32.944 49.568 32.432C49.056 31.9218 48.4222 31.6667 47.6667 31.6667H34.2667C33.5111 31.6667 32.8889 31.9218 32.4 32.432C31.9111 32.944 31.6667 33.5778 31.6667 34.3334C31.6667 35.0889 31.9218 35.7218 32.432 36.232C32.944 36.744 33.5778 37 34.3333 37ZM34.3333 53H37.0667C37.8222 53 38.4445 52.744 38.9333 52.232C39.4222 51.7218 39.6667 51.0889 39.6667 50.3334C39.6667 49.5778 39.4116 48.944 38.9013 48.432C38.3893 47.9218 37.7556 47.6667 37 47.6667H34.2667C33.5111 47.6667 32.8889 47.9218 32.4 48.432C31.9111 48.944 31.6667 49.5778 31.6667 50.3334C31.6667 51.0889 31.9218 51.7218 32.432 52.232C32.944 52.744 33.5778 53 34.3333 53ZM45 71.6667C41.3111 71.6667 37.8445 70.9663 34.6 69.5654C31.3556 68.1663 28.5333 66.2667 26.1333 63.8667C23.7333 61.4667 21.8338 58.6445 20.4347 55.4C19.0338 52.1556 18.3333 48.6889 18.3333 45C18.3333 41.3112 19.0338 37.8445 20.4347 34.6C21.8338 31.3556 23.7333 28.5334 26.1333 26.1334C28.5333 23.7334 31.3556 21.8329 34.6 20.432C37.8445 19.0329 41.3111 18.3334 45 18.3334C48.6889 18.3334 52.1556 19.0329 55.4 20.432C58.6445 21.8329 61.4667 23.7334 63.8667 26.1334C66.2667 28.5334 68.1662 31.3556 69.5653 34.6C70.9662 37.8445 71.6667 41.3112 71.6667 45C71.6667 48.6889 70.9662 52.1556 69.5653 55.4C68.1662 58.6445 66.2667 61.4667 63.8667 63.8667C61.4667 66.2667 58.6445 68.1663 55.4 69.5654C52.1556 70.9663 48.6889 71.6667 45 71.6667ZM50.4667 54.4667L48.6 52.6C48.0667 52.0667 47.4338 51.7885 46.7013 51.7654C45.9671 51.744 45.3333 52 44.8 52.5334C44.2667 53.0667 44 53.6996 44 54.432C44 55.1663 44.2667 55.8 44.8 56.3334L48.6 60.1334C49.1333 60.6667 49.7556 60.9334 50.4667 60.9334C51.1778 60.9334 51.8 60.6667 52.3333 60.1334L61.8667 50.6C62.4 50.0667 62.656 49.4445 62.6347 48.7334C62.6116 48.0223 62.3333 47.4 61.8 46.8667C61.2667 46.3778 60.6445 46.1218 59.9333 46.0987C59.2222 46.0774 58.6 46.3334 58.0667 46.8667L50.4667 54.4667Z" fill="#5541D7"/>
</svg>
